<svg width="1400" height="900" viewBox="0 0 1400 900" xmlns="http://www.w3.org/2000/svg">
  <defs>
    <linearGradient id="bg" x1="0" y1="0" x2="1" y2="1">
      <stop offset="0%" stop-color="#0F3D4C"/>
      <stop offset="100%" stop-color="#F08A4B"/>
    </linearGradient>
  </defs>
  <rect width="1400" height="900" fill="url(#bg)"/>
  <rect x="90" y="80" width="1220" height="740" rx="36" fill="#FFFFFF" opacity="0.94"/>
  <rect x="140" y="130" width="520" height="620" rx="28" fill="#F4F7F9"/>
  <rect x="700" y="130" width="560" height="300" rx="28" fill="#F4F7F9"/>
  <rect x="700" y="470" width="560" height="280" rx="28" fill="#F4F7F9"/>

  <circle cx="210" cy="200" r="42" fill="#0F3D4C"/>
  <path d="M190 200 C200 175, 230 175, 240 200 C230 225, 200 225, 190 200 Z" fill="#FFFFFF"/>
  <rect x="270" y="175" width="300" height="18" rx="9" fill="#0F3D4C"/>
  <rect x="270" y="210" width="240" height="12" rx="6" fill="#5B6B74"/>

  <rect x="170" y="270" width="420" height="120" rx="18" fill="#CFECEF"/>
  <rect x="170" y="410" width="420" height="120" rx="18" fill="#FFE3D1"/>
  <rect x="170" y="550" width="420" height="120" rx="18" fill="#C8F0E2"/>

  <rect x="750" y="180" width="360" height="20" rx="10" fill="#0F3D4C"/>
  <rect x="750" y="220" width="280" height="12" rx="6" fill="#5B6B74"/>
  <rect x="750" y="520" width="360" height="20" rx="10" fill="#0F3D4C"/>
  <rect x="750" y="560" width="280" height="12" rx="6" fill="#5B6B74"/>

  <text x="105" y="70" font-family="Arial, sans-serif" font-size="28" fill="#FFFFFF" font-weight="700">HarborFresh • Marketplace Preview</text>
</svg>
